<mxfile host="app.diagrams.net" agent="Mozilla/5.0 (Windows NT 10.0; Win64; x64; rv:132.0) Gecko/20100101 Firefox/132.0" version="24.7.5">
  <diagram name="Page-1" id="xKrFHACxb6yI2zSFycjk">
    <mxGraphModel dx="15880" dy="7320" grid="1" gridSize="12" guides="1" tooltips="1" connect="1" arrows="1" fold="1" page="1" pageScale="1" pageWidth="7200" pageHeight="4800" math="0" shadow="0">
      <root>
        <mxCell id="0" />
        <mxCell id="1" parent="0" />
        <mxCell id="BcMcnK-lcTdlmfd1Wk12-2" value="" style="rounded=0;whiteSpace=wrap;html=1;strokeWidth=10;fillColor=none;" vertex="1" parent="1">
          <mxGeometry x="156" y="120" width="6888" height="4536" as="geometry" />
        </mxCell>
        <mxCell id="BcMcnK-lcTdlmfd1Wk12-3" value="" style="endArrow=none;dashed=1;html=1;dashPattern=1 3;strokeWidth=2;rounded=0;entryX=0.337;entryY=0.009;entryDx=0;entryDy=0;entryPerimeter=0;exitX=0.337;exitY=0.992;exitDx=0;exitDy=0;exitPerimeter=0;" edge="1" parent="1" source="BcMcnK-lcTdlmfd1Wk12-2" target="BcMcnK-lcTdlmfd1Wk12-2">
          <mxGeometry width="50" height="50" relative="1" as="geometry">
            <mxPoint x="2133" y="4661" as="sourcePoint" />
            <mxPoint x="4310" y="1224" as="targetPoint" />
          </mxGeometry>
        </mxCell>
        <mxCell id="BcMcnK-lcTdlmfd1Wk12-4" value="" style="endArrow=none;html=1;rounded=0;" edge="1" parent="1">
          <mxGeometry width="50" height="50" relative="1" as="geometry">
            <mxPoint x="4260" y="1274" as="sourcePoint" />
            <mxPoint x="4310" y="1224" as="targetPoint" />
          </mxGeometry>
        </mxCell>
        <mxCell id="BcMcnK-lcTdlmfd1Wk12-5" value="" style="endArrow=none;html=1;rounded=0;entryX=0.329;entryY=0;entryDx=0;entryDy=0;entryPerimeter=0;strokeWidth=10;" edge="1" parent="1">
          <mxGeometry width="50" height="50" relative="1" as="geometry">
            <mxPoint x="2460" y="4620" as="sourcePoint" />
            <mxPoint x="2460.151999999998" y="120" as="targetPoint" />
          </mxGeometry>
        </mxCell>
        <mxCell id="BcMcnK-lcTdlmfd1Wk12-6" value="" style="endArrow=none;html=1;rounded=0;strokeWidth=10;" edge="1" parent="1">
          <mxGeometry width="50" height="50" relative="1" as="geometry">
            <mxPoint x="4765" y="4650" as="sourcePoint" />
            <mxPoint x="4765" y="150" as="targetPoint" />
          </mxGeometry>
        </mxCell>
        <mxCell id="BcMcnK-lcTdlmfd1Wk12-7" value="&lt;h3&gt;&lt;font style=&quot;font-size: 150px;&quot;&gt;Sensitivity of tree&amp;nbsp; growth&amp;nbsp; to precipitation in seasonally dry&amp;nbsp; tropical forests using long-term dendrometer band records&lt;/font&gt;&lt;br&gt;&lt;/h3&gt;" style="rounded=0;whiteSpace=wrap;html=1;fontFamily=Tahoma;" vertex="1" parent="1">
          <mxGeometry x="552" y="216" width="6096" height="528" as="geometry" />
        </mxCell>
        <mxCell id="BcMcnK-lcTdlmfd1Wk12-8" value="" style="rounded=1;whiteSpace=wrap;html=1;" vertex="1" parent="1">
          <mxGeometry x="228" y="1104" width="2148" height="1404" as="geometry" />
        </mxCell>
        <mxCell id="BcMcnK-lcTdlmfd1Wk12-9" value="" style="rounded=1;whiteSpace=wrap;html=1;" vertex="1" parent="1">
          <mxGeometry x="240" y="2676" width="2148" height="1404" as="geometry" />
        </mxCell>
        <mxCell id="BcMcnK-lcTdlmfd1Wk12-10" value="" style="rounded=1;whiteSpace=wrap;html=1;" vertex="1" parent="1">
          <mxGeometry x="2484" y="1104" width="4488" height="1404" as="geometry" />
        </mxCell>
        <mxCell id="BcMcnK-lcTdlmfd1Wk12-14" value="" style="rounded=1;whiteSpace=wrap;html=1;" vertex="1" parent="1">
          <mxGeometry x="2526" y="2692" width="2148" height="1404" as="geometry" />
        </mxCell>
        <mxCell id="BcMcnK-lcTdlmfd1Wk12-15" value="" style="rounded=1;whiteSpace=wrap;html=1;" vertex="1" parent="1">
          <mxGeometry x="4812" y="2687" width="2148" height="1404" as="geometry" />
        </mxCell>
        <mxCell id="BcMcnK-lcTdlmfd1Wk12-16" value="" style="rounded=1;whiteSpace=wrap;html=1;" vertex="1" parent="1">
          <mxGeometry x="240" y="4152" width="6684" height="444" as="geometry" />
        </mxCell>
      </root>
    </mxGraphModel>
  </diagram>
</mxfile>
